<svg width="30" height="30" viewBox="0 0 30 30" fill="none" xmlns="http://www.w3.org/2000/svg">
<g clip-path="url(#clip0_477_639)">
<path d="M9.4377 27.1875C20.7557 27.1875 26.9479 17.8084 26.9479 9.67739C26.9479 9.41372 26.942 9.14418 26.9303 8.88051C28.1348 8.00939 29.1744 6.93038 30 5.69418C28.8782 6.19331 27.6871 6.51929 26.4674 6.66098C27.7516 5.8912 28.7132 4.6819 29.1738 3.25727C27.9657 3.97326 26.6445 4.47833 25.2668 4.75082C24.3385 3.76451 23.1112 3.11146 21.7746 2.89262C20.438 2.67379 19.0665 2.90137 17.8722 3.54018C16.6779 4.17899 15.7273 5.19344 15.1673 6.4267C14.6074 7.65996 14.4693 9.04333 14.7744 10.3629C12.3281 10.2402 9.93492 9.60469 7.74998 8.49768C5.56503 7.39068 3.63712 5.83686 2.09121 3.93696C1.3055 5.29162 1.06507 6.89462 1.41879 8.42018C1.77251 9.94573 2.69383 11.2794 3.99551 12.15C3.01829 12.119 2.06247 11.8559 1.20703 11.3825V11.4586C1.20616 12.8802 1.69762 14.2583 2.59789 15.3585C3.49815 16.4588 4.75165 17.2133 6.14531 17.4938C5.24007 17.7415 4.28998 17.7776 3.36855 17.5993C3.76182 18.8219 4.52697 19.8912 5.55721 20.658C6.58746 21.4248 7.8314 21.8508 9.11543 21.8766C6.93553 23.5889 4.24272 24.5177 1.4707 24.5133C0.979109 24.5126 0.487999 24.4824 0 24.4231C2.81607 26.2297 6.09191 27.1893 9.4377 27.1875Z" fill="#25518C"/>
</g>
<defs>
<clipPath id="clip0_477_639">
<rect width="30" height="30" fill="white"/>
</clipPath>
</defs>
</svg>
