<svg width="43" height="41" viewBox="0 0 43 41" fill="none" xmlns="http://www.w3.org/2000/svg">
<path d="M14 38.25C11.4062 38.25 9.19562 37.3363 7.36812 35.5088C5.53937 33.68 4.625 31.4688 4.625 28.875V12C3.59375 12 2.71125 11.6325 1.9775 10.8975C1.2425 10.1638 0.875 9.28125 0.875 8.25V4.5C0.875 3.46875 1.2425 2.58562 1.9775 1.85062C2.71125 1.11687 3.59375 0.75 4.625 0.75H23.375C24.4062 0.75 25.2894 1.11687 26.0244 1.85062C26.7581 2.58562 27.125 3.46875 27.125 4.5V8.25C27.125 9.28125 26.7581 10.1638 26.0244 10.8975C25.2894 11.6325 24.4062 12 23.375 12V17.6719C22.0625 18.5156 20.9456 19.57 20.0244 20.835C19.1019 22.1012 18.4531 23.5312 18.0781 25.125H14V21.375H19.625V19.5H14V15.75H19.625V12H8.375V28.875C8.375 30.4375 8.92188 31.7656 10.0156 32.8594C11.1094 33.9531 12.4375 34.5 14 34.5C14.9375 34.5 15.7969 34.2969 16.5781 33.8906C17.3594 33.4844 18.0156 32.9219 18.5469 32.2031C18.7969 32.8281 19.0781 33.4219 19.3906 33.9844C19.7031 34.5469 20.0781 35.0938 20.5156 35.625C19.6719 36.4375 18.6956 37.0781 17.5869 37.5469C16.4769 38.0156 15.2812 38.25 14 38.25ZM14 30.75V27H17.7969C17.7344 27.625 17.7269 28.25 17.7744 28.875C17.8206 29.5 17.9219 30.125 18.0781 30.75H14ZM4.625 8.25H23.375V4.5H4.625V8.25ZM29.9375 32.625C31.25 32.625 32.3594 32.1719 33.2656 31.2656C34.1719 30.3594 34.625 29.25 34.625 27.9375C34.625 26.625 34.1719 25.5156 33.2656 24.6094C32.3594 23.7031 31.25 23.25 29.9375 23.25C28.625 23.25 27.5156 23.7031 26.6094 24.6094C25.7031 25.5156 25.25 26.625 25.25 27.9375C25.25 29.25 25.7031 30.3594 26.6094 31.2656C27.5156 32.1719 28.625 32.625 29.9375 32.625ZM39.5 40.125L34.4375 35.0625C33.75 35.5 33.0312 35.8281 32.2812 36.0469C31.5312 36.2656 30.75 36.375 29.9375 36.375C27.5938 36.375 25.6012 35.555 23.96 33.915C22.32 32.2738 21.5 30.2812 21.5 27.9375C21.5 25.5938 22.32 23.6012 23.96 21.96C25.6012 20.32 27.5938 19.5 29.9375 19.5C32.2812 19.5 34.2738 20.32 35.915 21.96C37.555 23.6012 38.375 25.5938 38.375 27.9375C38.375 28.75 38.2656 29.5312 38.0469 30.2812C37.8281 31.0312 37.5 31.75 37.0625 32.4375L42.125 37.5L39.5 40.125Z" fill="#25518C"/>
</svg>
