<svg width="31" height="39" viewBox="0 0 31 39" fill="none" xmlns="http://www.w3.org/2000/svg">
<path d="M15.5 23.25C16.5312 23.25 17.4144 22.8825 18.1494 22.1475C18.8831 21.4137 19.25 20.5312 19.25 19.5C19.25 18.4688 18.8831 17.5856 18.1494 16.8506C17.4144 16.1169 16.5312 15.75 15.5 15.75C14.4688 15.75 13.5863 16.1169 12.8525 16.8506C12.1175 17.5856 11.75 18.4688 11.75 19.5C11.75 20.5312 12.1175 21.4137 12.8525 22.1475C13.5863 22.8825 14.4688 23.25 15.5 23.25ZM15.5 34.3125C16.7812 33.9688 18.055 33.3356 19.3213 32.4131C20.5863 31.4919 21.6875 30.4688 22.625 29.3438L19.25 25.9688C18.6875 26.3125 18.0863 26.5706 17.4463 26.7431C16.805 26.9144 16.1562 27 15.5 27C13.4375 27 11.6719 26.2656 10.2031 24.7969C8.73438 23.3281 8 21.5625 8 19.5C8 17.4375 8.73438 15.6719 10.2031 14.2031C11.6719 12.7344 13.4375 12 15.5 12C17.5625 12 19.3281 12.7344 20.7969 14.2031C22.2656 15.6719 23 17.4375 23 19.5C23 20.1875 22.9144 20.8512 22.7431 21.4913C22.5706 22.1325 22.3125 22.75 21.9688 23.3438L24.7813 26.1562C25.4063 24.875 25.8906 23.5312 26.2344 22.125C26.5781 20.7188 26.75 19.2812 26.75 17.8125V8.95312L15.5 4.73438L4.25 8.95312V17.8125C4.25 21.5938 5.3125 25.0312 7.4375 28.125C9.5625 31.2188 12.25 33.2812 15.5 34.3125ZM15.5 38.25C11.1562 37.1562 7.57062 34.6637 4.74312 30.7725C1.91438 26.8825 0.5 22.5625 0.5 17.8125V6.375L15.5 0.75L30.5 6.375V17.8125C30.5 22.5625 29.0863 26.8825 26.2588 30.7725C23.43 34.6637 19.8438 37.1562 15.5 38.25Z" fill="#25518C"/>
</svg>
