<svg width="43" height="19" viewBox="0 0 43 19" fill="none" xmlns="http://www.w3.org/2000/svg">
<path d="M18.6875 18.875C17.6562 18.875 16.7738 18.5081 16.04 17.7744C15.305 17.0394 14.9375 16.1562 14.9375 15.125V3.875C14.9375 2.84375 15.305 1.96062 16.04 1.22562C16.7738 0.491875 17.6562 0.125 18.6875 0.125H24.3125C25.3438 0.125 26.2269 0.491875 26.9619 1.22562C27.6956 1.96062 28.0625 2.84375 28.0625 3.875V15.125C28.0625 16.1562 27.6956 17.0394 26.9619 17.7744C26.2269 18.5081 25.3438 18.875 24.3125 18.875H18.6875ZM0.875 18.875V15.125H8.375V11.375H4.625C3.59375 11.375 2.71125 11.0075 1.9775 10.2725C1.2425 9.53875 0.875 8.65625 0.875 7.625V3.875C0.875 2.84375 1.2425 1.96062 1.9775 1.22562C2.71125 0.491875 3.59375 0.125 4.625 0.125H12.125V3.875H4.625V7.625H8.375C9.40625 7.625 10.2888 7.99187 11.0225 8.72563C11.7575 9.46062 12.125 10.3438 12.125 11.375V15.125C12.125 16.1562 11.7575 17.0394 11.0225 17.7744C10.2888 18.5081 9.40625 18.875 8.375 18.875H0.875ZM30.875 18.875V15.125H38.375V11.375H34.625C33.5938 11.375 32.7106 11.0075 31.9756 10.2725C31.2419 9.53875 30.875 8.65625 30.875 7.625V3.875C30.875 2.84375 31.2419 1.96062 31.9756 1.22562C32.7106 0.491875 33.5938 0.125 34.625 0.125H42.125V3.875H34.625V7.625H38.375C39.4062 7.625 40.2894 7.99187 41.0244 8.72563C41.7581 9.46062 42.125 10.3438 42.125 11.375V15.125C42.125 16.1562 41.7581 17.0394 41.0244 17.7744C40.2894 18.5081 39.4062 18.875 38.375 18.875H30.875ZM18.6875 15.125H24.3125V3.875H18.6875V15.125Z" fill="#25518C"/>
</svg>
