<svg width="21" height="21" viewBox="0 0 21 21" fill="none" xmlns="http://www.w3.org/2000/svg">
<path d="M6.74967 15.7083L10.4997 11.9583L14.2497 15.7083L15.708 14.2499L11.958 10.4999L15.708 6.74992L14.2497 5.29159L10.4997 9.04159L6.74967 5.29159L5.29134 6.74992L9.04134 10.4999L5.29134 14.2499L6.74967 15.7083ZM10.4997 20.9166C9.0587 20.9166 7.70454 20.643 6.43718 20.0958C5.16981 19.5492 4.06738 18.8072 3.12988 17.8697C2.19238 16.9322 1.45037 15.8298 0.903841 14.5624C0.356619 13.2951 0.0830078 11.9409 0.0830078 10.4999C0.0830078 9.05895 0.356619 7.70478 0.903841 6.43742C1.45037 5.17006 2.19238 4.06763 3.12988 3.13013C4.06738 2.19263 5.16981 1.45027 6.43718 0.903044C7.70454 0.356516 9.0587 0.083252 10.4997 0.083252C11.9406 0.083252 13.2948 0.356516 14.5622 0.903044C15.8295 1.45027 16.932 2.19263 17.8695 3.13013C18.807 4.06763 19.549 5.17006 20.0955 6.43742C20.6427 7.70478 20.9163 9.05895 20.9163 10.4999C20.9163 11.9409 20.6427 13.2951 20.0955 14.5624C19.549 15.8298 18.807 16.9322 17.8695 17.8697C16.932 18.8072 15.8295 19.5492 14.5622 20.0958C13.2948 20.643 11.9406 20.9166 10.4997 20.9166ZM10.4997 18.8333C12.8261 18.8333 14.7965 18.026 16.4111 16.4114C18.0257 14.7968 18.833 12.8263 18.833 10.4999C18.833 8.17353 18.0257 6.20304 16.4111 4.58846C14.7965 2.97388 12.8261 2.16659 10.4997 2.16659C8.17329 2.16659 6.2028 2.97388 4.58822 4.58846C2.97363 6.20304 2.16634 8.17353 2.16634 10.4999C2.16634 12.8263 2.97363 14.7968 4.58822 16.4114C6.2028 18.026 8.17329 18.8333 10.4997 18.8333Z" fill="#1C1B1F"/>
</svg>
