<svg width="15" height="21" viewBox="0 0 15 21" fill="none" xmlns="http://www.w3.org/2000/svg">
<path d="M14.0686 7.9901C14.0686 12.1401 10.0186 17.1301 8.36857 18.9901C7.99857 19.4001 7.35857 19.4001 6.98857 18.9901C5.33857 17.1301 1.28857 12.1401 1.28857 7.9901C1.28857 4.4601 4.14857 1.6001 7.67857 1.6001C11.2086 1.6001 14.0686 4.4601 14.0686 7.9901Z" stroke="#25518C" stroke-width="1.5" stroke-miterlimit="10" stroke-linecap="round" stroke-linejoin="round"/>
<path d="M7.6684 10.5502C9.08225 10.5502 10.2284 9.40402 10.2284 7.99018C10.2284 6.57633 9.08225 5.43018 7.6684 5.43018C6.25455 5.43018 5.1084 6.57633 5.1084 7.99018C5.1084 9.40402 6.25455 10.5502 7.6684 10.5502Z" stroke="#25518C" stroke-width="1.5" stroke-miterlimit="10" stroke-linecap="round" stroke-linejoin="round"/>
</svg>
