<svg width="10" height="14" viewBox="0 0 10 14" fill="none" xmlns="http://www.w3.org/2000/svg">
<path d="M9.25975 5.66002C9.25975 8.42669 6.55975 11.7534 5.45975 12.9934C5.21308 13.2667 4.78641 13.2667 4.53975 12.9934C3.43975 11.7534 0.739746 8.42669 0.739746 5.66002C0.739746 3.30669 2.64641 1.40002 4.99975 1.40002C7.35308 1.40002 9.25975 3.30669 9.25975 5.66002Z" stroke="#1C1B1F" stroke-width="1.2" stroke-miterlimit="10" stroke-linecap="round" stroke-linejoin="round"/>
<path d="M4.99329 7.3667C5.93585 7.3667 6.69995 6.6026 6.69995 5.66004C6.69995 4.71747 5.93585 3.95337 4.99329 3.95337C4.05072 3.95337 3.28662 4.71747 3.28662 5.66004C3.28662 6.6026 4.05072 7.3667 4.99329 7.3667Z" stroke="#1C1B1F" stroke-width="1.2" stroke-miterlimit="10" stroke-linecap="round" stroke-linejoin="round"/>
</svg>
