<svg width="15" height="20" viewBox="0 0 15 20" fill="none" xmlns="http://www.w3.org/2000/svg">
<path d="M4.04699 1.71012L6.11699 0.870124C6.92699 0.540124 7.85699 0.930124 8.18699 1.75012L8.81699 3.29012C9.14699 4.10012 8.75699 5.03012 7.93699 5.37012L5.64699 6.30012C5.88699 7.45012 6.25699 8.80012 6.83699 10.2601C7.48699 11.9101 8.23699 13.2701 8.91699 14.3601L11.207 13.4301C12.027 13.1001 12.957 13.4901 13.287 14.3101L13.917 15.8501C14.247 16.6701 13.857 17.6001 13.037 17.9301L10.967 18.7701L10.927 18.7901C8.69699 19.6901 6.12698 18.8201 4.96698 16.7201C4.18698 15.3101 3.41699 13.7301 2.70699 11.9601C2.06699 10.3601 1.56699 8.83012 1.18699 7.41012C0.556985 5.08012 1.77698 2.65012 4.00698 1.74012L4.04699 1.71012Z" stroke="#25518C" stroke-width="1.5" stroke-miterlimit="10" stroke-linecap="round" stroke-linejoin="round"/>
</svg>
