<svg width="31" height="31" viewBox="0 0 31 31" fill="none" xmlns="http://www.w3.org/2000/svg">
<path d="M20.3123 22.3542L22.354 20.3125L16.9582 14.9167V8.20834H14.0415V16.0833L20.3123 22.3542ZM15.4998 30.0833C13.4825 30.0833 11.5866 29.7003 9.81234 28.9342C8.03803 28.169 6.49463 27.1302 5.18213 25.8177C3.86963 24.5052 2.83081 22.9618 2.06567 21.1875C1.29956 19.4132 0.916504 17.5174 0.916504 15.5C0.916504 13.4826 1.29956 11.5868 2.06567 9.8125C2.83081 8.0382 3.86963 6.4948 5.18213 5.1823C6.49463 3.8698 8.03803 2.83049 9.81234 2.06438C11.5866 1.29924 13.4825 0.916672 15.4998 0.916672C17.5172 0.916672 19.413 1.29924 21.1873 2.06438C22.9616 2.83049 24.505 3.8698 25.8175 5.1823C27.13 6.4948 28.1689 8.0382 28.934 9.8125C29.7001 11.5868 30.0832 13.4826 30.0832 15.5C30.0832 17.5174 29.7001 19.4132 28.934 21.1875C28.1689 22.9618 27.13 24.5052 25.8175 25.8177C24.505 27.1302 22.9616 28.169 21.1873 28.9342C19.413 29.7003 17.5172 30.0833 15.4998 30.0833Z" fill="#25518C"/>
</svg>
