<svg width="14" height="14" viewBox="0 0 14 14" fill="none" xmlns="http://www.w3.org/2000/svg">
<path d="M11.0658 5.00239C12.1338 5.00239 12.9997 4.10642 12.9997 3.00119C12.9997 1.89597 12.1338 1 11.0658 1C9.99768 1 9.13184 1.89597 9.13184 3.00119C9.13184 4.10642 9.99768 5.00239 11.0658 5.00239Z" stroke="#1C1B1F" stroke-width="1.2" stroke-miterlimit="10" stroke-linecap="round" stroke-linejoin="round"/>
<path d="M2.93392 8.99763C4.00199 8.99763 4.86784 8.10166 4.86784 6.99643C4.86784 5.8912 4.00199 4.99524 2.93392 4.99524C1.86585 4.99524 1 5.8912 1 6.99643C1 8.10166 1.86585 8.99763 2.93392 8.99763Z" stroke="#1C1B1F" stroke-width="1.2" stroke-miterlimit="10" stroke-linecap="round" stroke-linejoin="round"/>
<path d="M11.0658 12.9999C12.1338 12.9999 12.9997 12.104 12.9997 10.9988C12.9997 9.89352 12.1338 8.99756 11.0658 8.99756C9.99768 8.99756 9.13184 9.89352 9.13184 10.9988C9.13184 12.104 9.99768 12.9999 11.0658 12.9999Z" stroke="#1C1B1F" stroke-width="1.2" stroke-miterlimit="10" stroke-linecap="round" stroke-linejoin="round"/>
<path d="M9.34801 3.91541L4.65234 6.08936" stroke="#1C1B1F" stroke-width="1.2" stroke-miterlimit="10" stroke-linecap="round" stroke-linejoin="round"/>
<path d="M9.34802 10.0846L4.70801 7.94666" stroke="#1C1B1F" stroke-width="1.2" stroke-miterlimit="10" stroke-linecap="round" stroke-linejoin="round"/>
</svg>
